<svg width="500" height="80" viewBox="0 0 500 80" fill="none" xmlns="http://www.w3.org/2000/svg">
<path d="M483.071 80H339.357L354.845 0H500L483.071 80Z" fill="black"/>
<path d="M366.696 67.3154L360.028 59.4583L384.244 40.1726L400.387 51.9583L427.059 26.6011L440.395 38.0297L468.471 12.3154L475.49 20.1726L440.395 54.1011L427.059 41.6011L400.387 67.3154L384.244 54.1011L366.696 67.3154Z" fill="white"/>
<path d="M52.6818 27C52.8864 24.75 52.3409 22.9886 51.0455 21.7159C49.75 20.4205 47.5682 19.7727 44.5 19.7727C42.5455 19.7727 40.9091 20 39.5909 20.4545C38.2955 20.9091 37.2841 21.5341 36.5568 22.3295C35.8523 23.125 35.4091 24.0455 35.2273 25.0909C35.0227 25.9091 35.0341 26.6591 35.2614 27.3409C35.5114 28 35.9773 28.6023 36.6591 29.1477C37.3636 29.6932 38.2841 30.1818 39.4205 30.6136C40.5795 31.0455 41.9545 31.4318 43.5455 31.7727L49 33C52.7273 33.8182 55.8523 34.8977 58.375 36.2386C60.9205 37.5568 62.9205 39.125 64.375 40.9432C65.8295 42.7614 66.7841 44.7955 67.2386 47.0455C67.7159 49.2955 67.7273 51.75 67.2727 54.4091C66.5 59 64.7159 62.8864 61.9205 66.0682C59.125 69.25 55.4773 71.6705 50.9773 73.3295C46.4773 74.9886 41.2727 75.8182 35.3636 75.8182C29.3182 75.8182 24.1818 74.9205 19.9545 73.125C15.75 71.3068 12.7045 68.5341 10.8182 64.8068C8.95455 61.0568 8.5 56.2727 9.45455 50.4545H27.4545C27.1818 52.5909 27.4091 54.3864 28.1364 55.8409C28.8636 57.2955 30.0341 58.3977 31.6477 59.1477C33.2614 59.8977 35.2727 60.2727 37.6818 60.2727C39.7273 60.2727 41.4773 60.0227 42.9318 59.5227C44.3864 59.0227 45.5341 58.3295 46.375 57.4432C47.2159 56.5568 47.7273 55.5455 47.9091 54.4091C48.0909 53.3636 47.9091 52.4318 47.3636 51.6136C46.8182 50.7955 45.8295 50.0568 44.3977 49.3977C42.9659 48.7386 41 48.1364 38.5 47.5909L31.8182 46.0909C25.8864 44.7273 21.4091 42.4773 18.3864 39.3409C15.3636 36.2045 14.2955 31.9091 15.1818 26.4545C15.9091 22 17.7386 18.1136 20.6705 14.7955C23.625 11.4545 27.375 8.86363 31.9205 7.02272C36.4886 5.15909 41.5455 4.22727 47.0909 4.22727C52.7273 4.22727 57.4432 5.17045 61.2386 7.05682C65.0568 8.94318 67.7955 11.5909 69.4545 15C71.1364 18.4091 71.5909 22.4091 70.8182 27H52.6818ZM123.983 5.18182H142.938L135.506 49.9091C134.642 55.2273 132.619 59.8295 129.438 63.7159C126.278 67.5795 122.256 70.5682 117.369 72.6818C112.483 74.7727 107.051 75.8182 101.074 75.8182C95.0511 75.8182 89.9602 74.7727 85.8011 72.6818C81.642 70.5682 78.6193 67.5795 76.733 63.7159C74.8693 59.8295 74.3693 55.2273 75.233 49.9091L82.6648 5.18182H101.619L94.4602 48.2727C94.1193 50.4318 94.2898 52.3523 94.9716 54.0341C95.6534 55.7159 96.7557 57.0455 98.2784 58.0227C99.8011 58.9773 101.642 59.4545 103.801 59.4545C105.983 59.4545 107.994 58.9773 109.835 58.0227C111.699 57.0455 113.244 55.7159 114.472 54.0341C115.699 52.3523 116.483 50.4318 116.824 48.2727L123.983 5.18182ZM140.355 75L151.946 5.18182H182.082C187.264 5.18182 191.639 6.125 195.207 8.01136C198.776 9.89773 201.344 12.6136 202.912 16.1591C204.48 19.7045 204.855 23.9545 204.037 28.9091C203.219 33.9091 201.412 38.125 198.616 41.5568C195.844 44.9659 192.31 47.5568 188.014 49.3295C183.741 51.0795 178.946 51.9545 173.628 51.9545H155.628L158.082 37.2273H172.264C174.491 37.2273 176.446 36.9545 178.128 36.4091C179.81 35.8409 181.173 34.9545 182.219 33.75C183.264 32.5227 183.946 30.9091 184.264 28.9091C184.582 26.9091 184.423 25.2841 183.787 24.0341C183.151 22.7614 182.094 21.8295 180.616 21.2386C179.139 20.625 177.31 20.3182 175.128 20.3182H168.446L159.31 75H140.355ZM186.582 42.9545L198.719 75H178.128L166.401 42.9545H186.582ZM258.531 28.2273C258.44 27.0227 258.19 25.9659 257.781 25.0568C257.372 24.125 256.793 23.3409 256.043 22.7045C255.293 22.0455 254.361 21.5568 253.247 21.2386C252.156 20.8977 250.872 20.7273 249.395 20.7273C246.213 20.7273 243.315 21.4886 240.702 23.0114C238.088 24.5341 235.895 26.7273 234.122 29.5909C232.372 32.4545 231.168 35.9091 230.509 39.9545C229.827 44.0455 229.77 47.5455 230.338 50.4545C230.906 53.3636 232.134 55.5909 234.02 57.1364C235.929 58.6818 238.509 59.4545 241.759 59.4545C244.668 59.4545 247.179 59.0341 249.293 58.1932C251.406 57.3523 253.099 56.1591 254.372 54.6136C255.645 53.0682 256.44 51.25 256.759 49.1591L260.031 49.5H244.077L246.259 36H277.213L275.645 45.6818C274.599 52.0455 272.349 57.4886 268.895 62.0114C265.463 66.5114 261.19 69.9659 256.077 72.375C250.963 74.7614 245.349 75.9545 239.236 75.9545C232.463 75.9545 226.747 74.5114 222.088 71.625C217.429 68.7386 214.099 64.625 212.099 59.2841C210.122 53.9432 209.736 47.5909 210.94 40.2273C211.895 34.4545 213.622 29.3409 216.122 24.8864C218.645 20.4318 221.724 16.6705 225.361 13.6023C228.997 10.5114 233.009 8.18182 237.395 6.61363C241.781 5.02272 246.327 4.22727 251.031 4.22727C255.145 4.22727 258.884 4.81818 262.247 6C265.611 7.15909 268.486 8.81818 270.872 10.9773C273.259 13.1136 275.043 15.6477 276.224 18.5795C277.429 21.5114 277.918 24.7273 277.69 28.2273H258.531ZM279.574 75L291.165 5.18182H341.483L338.892 20.4545H307.528L305.619 32.4545H334.392L331.801 47.7273H303.028L301.119 59.7273H332.347L329.756 75H279.574Z" fill="black"/>
</svg>
