<svg width="500" height="116" viewBox="0 0 500 116" fill="none" xmlns="http://www.w3.org/2000/svg">
<path d="M483.316 98H341.683L356.947 17.5876H500L483.316 98Z" fill="black"/>
<path d="M369.016 85.6846L362.272 77.7158L386.765 58.156L403.093 70.1092L430.071 44.3917L443.56 55.9827L471.957 29.903L479.057 37.8718L443.56 72.2825L430.071 59.6049L403.093 85.6846L386.765 72.2825L369.016 85.6846Z" fill="white"/>
<path d="M42.1364 45C41.9545 42.7273 41.1023 40.9545 39.5795 39.6818C38.0795 38.4091 35.7955 37.7727 32.7273 37.7727C30.7727 37.7727 29.1705 38.0114 27.9205 38.4886C26.6932 38.9432 25.7841 39.5682 25.1932 40.3636C24.6023 41.1591 24.2955 42.0682 24.2727 43.0909C24.2273 43.9318 24.375 44.6932 24.7159 45.375C25.0795 46.0341 25.6477 46.6364 26.4205 47.1818C27.1932 47.7045 28.1818 48.1818 29.3864 48.6136C30.5909 49.0455 32.0227 49.4318 33.6818 49.7727L39.4091 51C43.2727 51.8182 46.5795 52.8977 49.3295 54.2386C52.0795 55.5795 54.3295 57.1591 56.0795 58.9773C57.8295 60.7727 59.1136 62.7955 59.9318 65.0455C60.7727 67.2955 61.2045 69.75 61.2273 72.4091C61.2045 77 60.0568 80.8864 57.7841 84.0682C55.5114 87.25 52.2614 89.6705 48.0341 91.3295C43.8295 92.9886 38.7727 93.8182 32.8636 93.8182C26.7955 93.8182 21.5 92.9205 16.9773 91.125C12.4773 89.3295 8.97727 86.5682 6.47727 82.8409C4 79.0909 2.75 74.2955 2.72727 68.4545H20.7273C20.8409 70.5909 21.375 72.3864 22.3295 73.8409C23.2841 75.2955 24.625 76.3977 26.3523 77.1477C28.1023 77.8977 30.1818 78.2727 32.5909 78.2727C34.6136 78.2727 36.3068 78.0227 37.6705 77.5227C39.0341 77.0227 40.0682 76.3295 40.7727 75.4432C41.4773 74.5568 41.8409 73.5455 41.8636 72.4091C41.8409 71.3409 41.4886 70.4091 40.8068 69.6136C40.1477 68.7955 39.0568 68.0682 37.5341 67.4318C36.0114 66.7727 33.9545 66.1591 31.3636 65.5909L24.4091 64.0909C18.2273 62.75 13.3523 60.5114 9.78409 57.375C6.23864 54.2159 4.47727 49.9091 4.5 44.4545C4.47727 40.0227 5.65909 36.1477 8.04545 32.8295C10.4545 29.4886 13.7841 26.8864 18.0341 25.0227C22.3068 23.1591 27.2045 22.2273 32.7273 22.2273C38.3636 22.2273 43.2386 23.1705 47.3523 25.0568C51.4659 26.9432 54.6364 29.6023 56.8636 33.0341C59.1136 36.4432 60.25 40.4318 60.2727 45H42.1364ZM109.756 23.1818H128.71V67.9091C128.71 73.2273 127.438 77.8295 124.892 81.7159C122.369 85.5795 118.847 88.5682 114.324 90.6818C109.801 92.7727 104.551 93.8182 98.5739 93.8182C92.5511 93.8182 87.2784 92.7727 82.7557 90.6818C78.233 88.5682 74.7102 85.5795 72.1875 81.7159C69.6875 77.8295 68.4375 73.2273 68.4375 67.9091V23.1818H87.392V66.2727C87.392 68.4318 87.8693 70.3636 88.8239 72.0682C89.7784 73.75 91.0966 75.0682 92.7784 76.0227C94.483 76.9773 96.4148 77.4545 98.5739 77.4545C100.756 77.4545 102.688 76.9773 104.369 76.0227C106.051 75.0682 107.369 73.75 108.324 72.0682C109.278 70.3636 109.756 68.4318 109.756 66.2727V23.1818ZM137.719 93V23.1818H167.855C173.037 23.1818 177.571 24.125 181.457 26.0114C185.344 27.8977 188.366 30.6136 190.526 34.1591C192.685 37.7045 193.764 41.9545 193.764 46.9091C193.764 51.9091 192.651 56.125 190.423 59.5568C188.219 62.9886 185.116 65.5795 181.116 67.3295C177.139 69.0795 172.491 69.9545 167.173 69.9545H149.173V55.2273H163.355C165.582 55.2273 167.48 54.9545 169.048 54.4091C170.639 53.8409 171.855 52.9432 172.696 51.7159C173.56 50.4886 173.991 48.8864 173.991 46.9091C173.991 44.9091 173.56 43.2841 172.696 42.0341C171.855 40.7614 170.639 39.8295 169.048 39.2386C167.48 38.625 165.582 38.3182 163.355 38.3182H156.673V93H137.719ZM178.628 60.9545L196.082 93H175.491L158.446 60.9545H178.628ZM247.185 46.2273C246.889 45.0227 246.423 43.9659 245.787 43.0568C245.151 42.125 244.355 41.3409 243.401 40.7045C242.469 40.0455 241.378 39.5568 240.128 39.2386C238.901 38.8977 237.548 38.7273 236.071 38.7273C232.889 38.7273 230.173 39.4886 227.923 41.0114C225.696 42.5341 223.991 44.7273 222.81 47.5909C221.651 50.4545 221.071 53.9091 221.071 57.9545C221.071 62.0455 221.628 65.5455 222.741 68.4545C223.855 71.3636 225.514 73.5909 227.719 75.1364C229.923 76.6818 232.662 77.4545 235.935 77.4545C238.821 77.4545 241.219 77.0341 243.128 76.1932C245.06 75.3523 246.503 74.1591 247.457 72.6136C248.412 71.0682 248.889 69.25 248.889 67.1591L252.162 67.5H236.207V54H267.162V63.6818C267.162 70.0455 265.81 75.4886 263.105 80.0114C260.423 84.5114 256.719 87.9659 251.991 90.375C247.287 92.7614 241.889 93.9545 235.798 93.9545C229.003 93.9545 223.037 92.5114 217.901 89.625C212.764 86.7386 208.753 82.625 205.866 77.2841C203.003 71.9432 201.571 65.5909 201.571 58.2273C201.571 52.4545 202.446 47.3409 204.196 42.8864C205.969 38.4318 208.423 34.6705 211.56 31.6023C214.696 28.5114 218.321 26.1818 222.435 24.6136C226.548 23.0227 230.957 22.2273 235.662 22.2273C239.798 22.2273 243.639 22.8182 247.185 24C250.753 25.1591 253.901 26.8182 256.628 28.9773C259.378 31.1136 261.594 33.6477 263.276 36.5795C264.957 39.5114 265.98 42.7273 266.344 46.2273H247.185ZM276 93V23.1818H326.318V38.4545H294.955V50.4545H323.727V65.7273H294.955V77.7273H326.182V93H276Z" fill="black"/>
</svg>
