<svg width="220" height="74" viewBox="0 0 220 74" fill="none" xmlns="http://www.w3.org/2000/svg">
<path d="M10.0859 61.6894L6.00488 71.0205H4.01562L0.078125 61.6894H2.31348L5.06152 68.7099L7.85059 61.6894H10.0859ZM11.0703 71.0205V61.6894H13.0527V71.0205H11.0703ZM16.9492 67.4726V71.0205H14.9668V61.6894H19.5195C20.8275 61.6894 21.7412 61.8558 22.2607 62.1884C22.639 62.43 22.9215 62.749 23.1084 63.1455C23.2816 63.4964 23.3682 63.8746 23.3682 64.2802C23.3682 65.693 22.7734 66.6022 21.584 67.0078C21.9987 67.1491 22.2972 67.304 22.4795 67.4726C22.9671 67.9557 23.2337 68.6689 23.2793 69.6123C23.334 70.2822 23.4092 70.7516 23.5049 71.0205H21.2764C21.208 70.8017 21.1396 70.3597 21.0713 69.6943C21.0166 69.1702 20.9368 68.792 20.832 68.5595C20.6042 68.0491 20.2077 67.721 19.6426 67.5752C19.36 67.5068 18.9954 67.4726 18.5488 67.4726H16.9492ZM16.9492 65.8115H19.7383C20.2031 65.8115 20.5335 65.7431 20.7295 65.6064C21.0257 65.3968 21.1738 65.0368 21.1738 64.5263C21.1738 63.9567 20.9505 63.5921 20.5039 63.4326C20.349 63.3779 20.0938 63.3506 19.7383 63.3506H16.9492V65.8115ZM27.0732 63.3506H24.0996V61.6894H32.1455V63.3506H29.0557V71.0205H27.0732V63.3506ZM35.0508 61.6894V67.2812C35.0508 67.7233 35.085 68.0605 35.1533 68.2929C35.2809 68.735 35.5635 69.0608 36.001 69.2705C36.3564 69.4437 36.7484 69.5302 37.1768 69.5302C37.6279 69.5302 38.0518 69.4391 38.4482 69.2568C38.8812 69.0563 39.1318 68.6644 39.2002 68.081C39.223 67.8714 39.2344 67.6048 39.2344 67.2812V61.6894H41.2168V67.1855C41.2168 67.8235 41.1462 68.4046 41.0049 68.9287C40.7998 69.7171 40.2507 70.3095 39.3574 70.706C38.7741 70.9658 38.0358 71.0957 37.1426 71.0957C35.7025 71.0957 34.6497 70.7789 33.9844 70.1455C33.5833 69.7581 33.319 69.3047 33.1914 68.7851C33.1094 68.4524 33.0684 67.9671 33.0684 67.3291V61.6894H35.0508ZM41.6406 71.0205L45.5029 61.6894H47.793L51.6553 71.0205H49.3242L48.4219 68.8603H44.874L43.9717 71.0205H41.6406ZM46.6514 63.9316L45.3184 67.1992H47.9775L46.6514 63.9316ZM52.5508 61.6894H54.5332V66.9258C54.5605 67.5911 54.5902 68.0332 54.6221 68.2519C54.7132 68.8261 55.0869 69.1702 55.7432 69.2841C56.0439 69.3343 56.4792 69.3593 57.0488 69.3593H58.9561V71.0205H56.8438C55.8457 71.025 55.1211 70.9681 54.6699 70.8496C53.64 70.5488 52.9883 69.8948 52.7148 68.8877C52.61 68.5003 52.5553 67.8463 52.5508 66.9258V61.6894ZM62.7227 71.0205L66.585 61.6894H68.875L72.7373 71.0205H70.4062L69.5039 68.8603H65.9561L65.0537 71.0205H62.7227ZM67.7334 63.9316L66.4004 67.1992H69.0596L67.7334 63.9316ZM75.6357 64.1777V71.0205H73.7422V61.6894H76.2852L79.9971 68.6416V61.6894H81.8906V71.0205H79.4434L75.6357 64.1777ZM82.834 71.0205L86.6963 61.6894H88.9863L92.8486 71.0205H90.5176L89.6152 68.8603H86.0674L85.165 71.0205H82.834ZM87.8447 63.9316L86.5117 67.1992H89.1709L87.8447 63.9316ZM93.7441 61.6894H95.7266V66.9258C95.7539 67.5911 95.7835 68.0332 95.8154 68.2519C95.9066 68.8261 96.2803 69.1702 96.9365 69.2841C97.2373 69.3343 97.6725 69.3593 98.2422 69.3593H100.149V71.0205H98.0371C97.0391 71.025 96.3145 70.9681 95.8633 70.8496C94.8333 70.5488 94.1816 69.8948 93.9082 68.8877C93.8034 68.5003 93.7487 67.8463 93.7441 66.9258V61.6894ZM105.263 61.6279C106.165 61.6279 106.969 61.7874 107.676 62.1064C108.51 62.4892 109.093 63.125 109.426 64.0136C109.69 64.7155 109.822 65.5267 109.822 66.4472C109.822 67.4225 109.658 68.2588 109.33 68.956C108.938 69.7946 108.327 70.3779 107.498 70.706C106.874 70.9521 106.158 71.0752 105.352 71.0752C104.312 71.0752 103.401 70.8792 102.617 70.4873C101.833 70.0908 101.271 69.4209 100.929 68.4775C100.715 67.8805 100.607 67.1878 100.607 66.3994C100.607 64.6266 101.049 63.3597 101.934 62.5986C102.695 61.9515 103.804 61.6279 105.263 61.6279ZM105.201 63.2002C104.7 63.2002 104.26 63.3073 103.882 63.5215C103.44 63.7721 103.137 64.18 102.973 64.7451C102.854 65.1644 102.795 65.6953 102.795 66.3379C102.795 67.4271 102.991 68.2314 103.383 68.7509C103.77 69.2568 104.388 69.5097 105.235 69.5097C106.17 69.5097 106.826 69.1725 107.204 68.498C107.491 67.9922 107.635 67.2653 107.635 66.3174C107.635 65.3694 107.478 64.638 107.163 64.123C106.789 63.5078 106.135 63.2002 105.201 63.2002ZM114.648 65.4765H119.235V71.0205H115.065C114.236 71.0205 113.568 70.9362 113.062 70.7675C112.42 70.5534 111.912 70.166 111.538 69.6054C110.991 68.776 110.718 67.705 110.718 66.3925C110.718 65.1803 110.952 64.1754 111.422 63.3779C111.864 62.6168 112.502 62.1269 113.336 61.9082C113.883 61.7623 114.491 61.6894 115.161 61.6894H119.235V63.3506H115.387C114.557 63.3506 113.953 63.5328 113.575 63.8974C113.129 64.3258 112.905 65.0937 112.905 66.2011C112.905 66.9941 113.012 67.6618 113.227 68.2041C113.404 68.6644 113.689 68.9788 114.081 69.1474C114.418 69.2887 114.876 69.3593 115.455 69.3593H117.253V67.1377H114.648V65.4765ZM124.383 71.0205V69.3593H128.642C129.325 69.3593 129.781 69.291 130.009 69.1543C130.337 68.9583 130.501 68.6644 130.501 68.2724C130.501 67.8213 130.31 67.4909 129.927 67.2812C129.708 67.1627 129.359 67.1035 128.881 67.1035H127.151C126.094 67.1035 125.333 66.9121 124.868 66.5293C124.563 66.2786 124.328 65.9596 124.164 65.5722C124.014 65.2122 123.938 64.8362 123.938 64.4443C123.938 63.7835 124.13 63.1842 124.513 62.6465C124.891 62.1224 125.49 61.817 126.311 61.7304C126.589 61.7031 127.003 61.6894 127.555 61.6894H132.183V63.3506H128.006C127.258 63.3506 126.789 63.3984 126.598 63.4941C126.288 63.6536 126.133 63.9498 126.133 64.3828C126.133 64.761 126.274 65.0436 126.557 65.2304C126.771 65.3717 127.197 65.4424 127.835 65.4424H129.332C130.093 65.4424 130.665 65.5084 131.048 65.6406C131.709 65.8639 132.162 66.2558 132.408 66.8164C132.609 67.2767 132.709 67.7597 132.709 68.2656C132.709 68.8261 132.579 69.3343 132.319 69.79C131.955 70.428 131.406 70.8086 130.672 70.9316C130.316 70.9909 129.783 71.0205 129.072 71.0205H124.383ZM136.592 66.9258L133.14 61.6894H135.464L137.604 65.333L139.859 61.6894H142.218L138.574 67.0078V71.0205H136.592V66.9258ZM145.116 64.1777V71.0205H143.223V61.6894H145.766L149.478 68.6416V61.6894H151.371V71.0205H148.924L145.116 64.1777ZM155.37 63.3506H152.396V61.6894H160.442V63.3506H157.353V71.0205H155.37V63.3506ZM169.049 61.6894V71.0205H167.066V67.1582H163.457V71.0205H161.475V61.6894H163.457V65.497H167.066V61.6894H169.049ZM177.963 61.6894V63.3506H175.372C174.625 63.3551 174.101 63.4121 173.8 63.5215C173.458 63.6354 173.18 63.886 172.966 64.2734C172.838 64.5149 172.754 64.9388 172.713 65.5449H177.963V67.206H172.713C172.758 67.8577 172.932 68.359 173.232 68.7099C173.433 68.9378 173.677 69.0927 173.964 69.1748C174.36 69.2933 174.859 69.3548 175.461 69.3593H177.963V71.0205H175.372C174.67 71.0205 174.053 70.9772 173.52 70.8906C172.676 70.7539 172.009 70.387 171.517 69.79C170.81 68.9332 170.457 67.762 170.457 66.2763C170.457 64.6676 170.958 63.4121 171.961 62.5097C172.348 62.1588 172.772 61.9264 173.232 61.8125C173.583 61.7304 174.041 61.6894 174.606 61.6894H177.963ZM179.508 71.0205V69.3593H183.767C184.45 69.3593 184.906 69.291 185.134 69.1543C185.462 68.9583 185.626 68.6644 185.626 68.2724C185.626 67.8213 185.435 67.4909 185.052 67.2812C184.833 67.1627 184.484 67.1035 184.006 67.1035H182.276C181.219 67.1035 180.458 66.9121 179.993 66.5293C179.688 66.2786 179.453 65.9596 179.289 65.5722C179.139 65.2122 179.063 64.8362 179.063 64.4443C179.063 63.7835 179.255 63.1842 179.638 62.6465C180.016 62.1224 180.615 61.817 181.436 61.7304C181.714 61.7031 182.128 61.6894 182.68 61.6894H187.308V63.3506H183.131C182.383 63.3506 181.914 63.3984 181.723 63.4941C181.413 63.6536 181.258 63.9498 181.258 64.3828C181.258 64.761 181.399 65.0436 181.682 65.2304C181.896 65.3717 182.322 65.4424 182.96 65.4424H184.457C185.218 65.4424 185.79 65.5084 186.173 65.6406C186.834 65.8639 187.287 66.2558 187.533 66.8164C187.734 67.2767 187.834 67.7597 187.834 68.2656C187.834 68.8261 187.704 69.3343 187.444 69.79C187.08 70.428 186.531 70.8086 185.797 70.9316C185.441 70.9909 184.908 71.0205 184.197 71.0205H179.508ZM189.27 71.0205V61.6894H191.252V71.0205H189.27ZM198.628 63.3506H192.735V61.6894H200.85V63.4052L195.169 69.3593H200.85V71.0205H192.735V69.4072L198.628 63.3506ZM209.326 61.6894V63.3506H206.735C205.988 63.3551 205.464 63.4121 205.163 63.5215C204.821 63.6354 204.543 63.886 204.329 64.2734C204.201 64.5149 204.117 64.9388 204.076 65.5449H209.326V67.206H204.076C204.122 67.8577 204.295 68.359 204.596 68.7099C204.796 68.9378 205.04 69.0927 205.327 69.1748C205.724 69.2933 206.223 69.3548 206.824 69.3593H209.326V71.0205H206.735C206.034 71.0205 205.416 70.9772 204.883 70.8906C204.04 70.7539 203.372 70.387 202.88 69.79C202.174 68.9332 201.82 67.762 201.82 66.2763C201.82 64.6676 202.322 63.4121 203.324 62.5097C203.712 62.1588 204.135 61.9264 204.596 61.8125C204.947 61.7304 205.405 61.6894 205.97 61.6894H209.326ZM212.881 67.4726V71.0205H210.898V61.6894H215.451C216.759 61.6894 217.673 61.8558 218.192 62.1884C218.571 62.43 218.853 62.749 219.04 63.1455C219.213 63.4964 219.3 63.8746 219.3 64.2802C219.3 65.693 218.705 66.6022 217.516 67.0078C217.93 67.1491 218.229 67.304 218.411 67.4726C218.899 67.9557 219.165 68.6689 219.211 69.6123C219.266 70.2822 219.341 70.7516 219.437 71.0205H217.208C217.14 70.8017 217.071 70.3597 217.003 69.6943C216.948 69.1702 216.868 68.792 216.764 68.5595C216.536 68.0491 216.139 67.721 215.574 67.5752C215.292 67.5068 214.927 67.4726 214.48 67.4726H212.881ZM212.881 65.8115H215.67C216.135 65.8115 216.465 65.7431 216.661 65.6064C216.957 65.3968 217.105 65.0368 217.105 64.5263C217.105 63.9567 216.882 63.5921 216.436 63.4326C216.281 63.3779 216.025 63.3506 215.67 63.3506H212.881V65.8115Z" fill="white"/>
<path d="M216.629 3.10346L211.604 10.7992L210.331 9.99616C209.661 9.59464 207.785 9.19312 206.378 9.92923C205.038 10.5315 204.368 12.606 204.368 13.1414V18.0265H212.944V26.9267C212.542 26.4583 212.274 26.2575 211.805 26.0568C211.202 25.6553 210.867 25.5214 210.197 25.3876H204.234V46.7349C204.234 48.274 204.502 49.2778 205.239 50.6831C205.909 51.7538 206.378 52.3561 207.316 53.0922L188.288 53.0253C189.494 52.423 190.231 51.7538 190.834 50.4823C191.437 49.2109 191.37 48.2071 191.37 46.8018V25.3876H186.077L191.37 18.1603V13.7436C191.37 10.1969 195.189 3.83958 201.353 2.70195C204.234 2.16659 211.269 1.76508 214.552 2.63503L216.629 3.10346Z" stroke="white" stroke-width="2" stroke-linejoin="round"/>
<path d="M184.605 53.0253H165.845L154.857 33.6187L147.554 44.3927C147.085 45.1288 146.281 47.0695 146.482 48.8094C146.75 50.75 147.487 51.9546 148.961 53.1591L131.608 53.0253L150.368 26.726L139.313 7.31938C138.576 5.981 137.906 5.17796 136.767 4.10726C135.963 3.37114 135.36 2.96963 134.422 2.36735H152.646L161.557 18.7626L167.386 9.59464C168.257 8.18933 168.257 6.85094 167.654 5.3118C167.118 3.83958 166.314 2.96963 164.974 2.36735H181.992L165.778 25.7891L177.771 45.3965C179.245 47.7386 179.915 48.7424 182.126 51.0846C182.93 52.0215 183.6 52.423 184.605 53.0253Z" stroke="white" stroke-width="2" stroke-linejoin="round"/>
<path d="M139.566 24.9971L136.488 31.3614C136.218 31.9547 135.894 32.1704 135.462 32.3862C134.76 32.8176 134.274 32.4401 133.518 32.4401C127.2 32.7637 119.474 32.3862 113.102 32.548C111.374 32.6019 110.888 32.494 109.592 32.9794L108.026 33.5188C108.188 32.7098 110.996 28.1253 111.698 26.7769C112.076 25.914 112.67 26.1297 113.318 26.1297L135.246 26.1836C136.11 26.1836 136.65 25.914 137.514 25.6982C138.324 25.4285 138.756 25.2667 139.566 24.9971Z" stroke="white" stroke-width="2" stroke-linejoin="round"/>
<path d="M102.22 37.5399C102.016 45.9618 95.284 53.0253 86.784 53.0253H59.448C60.196 52.6178 60.74 52.2103 61.284 51.5311C62.44 50.2406 63.188 49.2219 63.188 47.456L63.256 8.26724C63.256 6.90888 63.052 6.02594 62.44 4.80341C61.828 3.37714 61.012 2.42628 59.924 1.61126H84.608C95.148 1.61126 98.956 7.99556 99.364 13.9044C99.704 18.9304 95.624 22.53 91.068 23.8884C97.936 25.6543 102.356 30.1369 102.22 37.5399ZM84.88 15.1949C84.812 11.4594 82.5 8.26724 79.236 9.01434L77.604 9.48976V21.5792L79.236 21.715C82.636 21.9867 84.88 18.387 84.88 15.1949ZM88.144 36.9287C87.872 31.4952 85.968 28.371 80.46 28.371H77.672V44.7393L78.76 45.3505C80.12 46.1655 88.62 46.3014 88.144 36.9287Z" stroke="white" stroke-width="2" stroke-linejoin="round"/>
<path d="M59.908 26.6051C59.908 44.128 47.328 54.4516 29.648 54.4516C12.852 54.4516 2.17599 42.1584 2.17599 27.9635C2.17599 12.8178 14.076 1 31.28 1C47.736 1 59.908 11.1877 59.908 26.6051ZM44.608 30.1369C44.608 19.6775 40.46 8.67474 30.192 8.67474C21.488 8.67474 17.136 16.4174 17.136 25.5864C17.136 35.9778 22.44 46.7089 31.28 46.7089C40.936 46.7089 44.608 38.6946 44.608 30.1369Z" stroke="white" stroke-width="2" stroke-linejoin="round"/>
</svg>
