<svg width="655" height="100" viewBox="0 0 655 100" fill="none" xmlns="http://www.w3.org/2000/svg">
<path d="M49.9226 66.3943C58.9061 66.3943 66.1887 59.1118 66.1887 50.1284C66.1887 41.1449 58.9061 33.8624 49.9226 33.8624C40.9391 33.8624 33.6566 41.1449 33.6566 50.1284C33.6566 59.1118 40.9391 66.3943 49.9226 66.3943Z" fill="white"/>
<path d="M19.8243 47.0968C27.5925 47.0968 33.8898 40.7995 33.8898 33.0314C33.8898 25.2632 27.5925 18.9659 19.8243 18.9659C12.0561 18.9659 5.75869 25.2632 5.75869 33.0314C5.75869 40.7995 12.0561 47.0968 19.8243 47.0968Z" fill="black"/>
<path d="M19.8228 45.6298C26.7808 45.6298 32.4214 39.9893 32.4214 33.0314C32.4214 26.0734 26.7808 20.4329 19.8228 20.4329C12.8648 20.4329 7.22422 26.0734 7.22422 33.0314C7.22422 39.9893 12.8648 45.6298 19.8228 45.6298Z" fill="white"/>
<path d="M49.9234 99.2335C57.6915 99.2335 63.9889 92.9362 63.9889 85.168C63.9889 77.3999 57.6915 71.1026 49.9234 71.1026C42.1552 71.1026 35.8578 77.3999 35.8578 85.168C35.8578 92.9362 42.1552 99.2335 49.9234 99.2335Z" fill="black"/>
<path d="M49.9219 97.7665C56.8799 97.7665 62.5204 92.126 62.5204 85.168C62.5204 78.2101 56.8799 72.5696 49.9219 72.5696C42.9639 72.5696 37.3233 78.2101 37.3233 85.168C37.3233 92.126 42.9639 97.7665 49.9219 97.7665Z" fill="white"/>
<path d="M80.0239 82.5883C88.1972 82.5883 94.823 75.9626 94.823 67.7894C94.823 59.6162 88.1972 52.9904 80.0239 52.9904C71.8506 52.9904 65.2249 59.6162 65.2249 67.7894C65.2249 75.9626 71.8506 82.5883 80.0239 82.5883Z" fill="white"/>
<path d="M80.0239 81.1214C87.387 81.1214 93.356 75.1524 93.356 67.7894C93.356 60.4264 87.387 54.4574 80.0239 54.4574C72.6608 54.4574 66.6918 60.4264 66.6918 67.7894C66.6918 75.1524 72.6608 81.1214 80.0239 81.1214Z" fill="black"/>
<path d="M19.8243 82.5883C27.9975 82.5883 34.6233 75.9626 34.6233 67.7894C34.6233 59.6162 27.9975 52.9904 19.8243 52.9904C11.651 52.9904 5.0252 59.6162 5.0252 67.7894C5.0252 75.9626 11.651 82.5883 19.8243 82.5883Z" fill="white"/>
<path d="M19.8243 81.1214C27.1874 81.1214 33.1563 75.1524 33.1563 67.7894C33.1563 60.4264 27.1874 54.4574 19.8243 54.4574C12.4612 54.4574 6.49219 60.4264 6.49219 67.7894C6.49219 75.1524 12.4612 81.1214 19.8243 81.1214Z" fill="black"/>
<path d="M80.0261 47.0968C87.7943 47.0968 94.0917 40.7995 94.0917 33.0314C94.0917 25.2632 87.7943 18.9659 80.0261 18.9659C72.2579 18.9659 65.9606 25.2632 65.9606 33.0314C65.9606 40.7995 72.2579 47.0968 80.0261 47.0968Z" fill="black"/>
<path d="M80.0246 45.6298C86.9826 45.6298 92.6232 39.9893 92.6232 33.0314C92.6232 26.0734 86.9826 20.4329 80.0246 20.4329C73.0667 20.4329 67.4261 26.0734 67.4261 33.0314C67.4261 39.9893 73.0667 45.6298 80.0246 45.6298Z" fill="white"/>
<path d="M49.9226 30.4532C58.0959 30.4532 64.7217 23.8274 64.7217 15.6542C64.7217 7.48097 58.0959 0.855255 49.9226 0.855255C41.7493 0.855255 35.1236 7.48097 35.1236 15.6542C35.1236 23.8274 41.7493 30.4532 49.9226 30.4532Z" fill="white"/>
<path d="M49.9226 28.9862C57.2857 28.9862 63.2547 23.0172 63.2547 15.6542C63.2547 8.29116 57.2857 2.32224 49.9226 2.32224C42.5595 2.32224 36.5906 8.29116 36.5906 15.6542C36.5906 23.0172 42.5595 28.9862 49.9226 28.9862Z" fill="black"/>
<path d="M52.8119 29.8898H46.9439V50.4276H52.8119V29.8898Z" fill="white"/>
<path d="M51.3449 26.9559H48.4109V50.4276H51.3449V26.9559Z" fill="black"/>
<path d="M51.2391 52.9665L48.3052 47.8849L30.5187 58.1542L33.4526 63.2358L51.2391 52.9665Z" fill="white"/>
<path d="M50.5044 51.7002L49.0374 49.1584L28.709 60.8916L30.176 63.4334L50.5044 51.7002Z" fill="black"/>
<path d="M69.2359 58.1544L51.45 47.8855L48.516 52.9671L66.3019 63.236L69.2359 58.1544Z" fill="white"/>
<path d="M71.0441 60.8913L50.718 49.1557L49.251 51.6966L69.5771 63.4321L71.0441 60.8913Z" fill="black"/>
<path d="M51.2911 47.8859L32.6541 37.1255L29.7201 42.2072L48.3571 52.9675L51.2911 47.8859Z" fill="black"/>
<path d="M50.5579 49.1563L30.2306 37.42L28.7636 39.9608L49.0909 51.6971L50.5579 49.1563Z" fill="white"/>
<path d="M52.8119 50.4276H46.9439V72.4324H52.8119V50.4276Z" fill="black"/>
<path d="M51.3449 50.4276H48.4109V73.8994H51.3449V50.4276Z" fill="white"/>
<path d="M70.1521 42.0164L67.2181 36.9347L48.4095 47.7941L51.3435 52.8757L70.1521 42.0164Z" fill="black"/>
<path d="M70.9418 39.8699L69.4748 37.3291L49.1481 49.0649L50.6151 51.6058L70.9418 39.8699Z" fill="white"/>
<path d="M49.9226 64.9273C58.0959 64.9273 64.7217 58.3016 64.7217 50.1284C64.7217 41.9551 58.0959 35.3294 49.9226 35.3294C41.7493 35.3294 35.1236 41.9551 35.1236 50.1284C35.1236 58.3016 41.7493 64.9273 49.9226 64.9273Z" fill="black"/>
<path d="M49.9226 63.4603C57.2857 63.4603 63.2547 57.4914 63.2547 50.1284C63.2547 42.7653 57.2857 36.7964 49.9226 36.7964C42.5595 36.7964 36.5906 42.7653 36.5906 50.1284C36.5906 57.4914 42.5595 63.4603 49.9226 63.4603Z" fill="#FF9100"/>
<path d="M139.2 57.064L130.304 54.952C127.36 54.2693 125.291 53.16 124.096 51.624C122.901 50.0453 122.304 47.8053 122.304 44.904C122.304 40.552 123.499 37.352 125.888 35.304C128.277 33.256 131.989 32.232 137.024 32.232C139.115 32.232 140.971 32.3387 142.592 32.552C144.256 32.7227 145.792 33 147.2 33.384V40.296C144.768 39.8267 142.827 39.528 141.376 39.4C139.925 39.2293 138.432 39.144 136.896 39.144C134.336 39.144 132.523 39.5493 131.456 40.36C130.389 41.128 129.856 42.472 129.856 44.392C129.856 45.5013 130.069 46.3547 130.496 46.952C130.965 47.5067 131.733 47.912 132.8 48.168L141.44 50.216C143.445 50.6853 144.939 51.176 145.92 51.688C146.901 52.1573 147.712 52.7547 148.352 53.48C148.992 54.2907 149.461 55.2933 149.76 56.488C150.101 57.6827 150.272 59.1547 150.272 60.904C150.272 65.4267 149.077 68.6693 146.688 70.632C144.299 72.5947 140.587 73.576 135.552 73.576C132.949 73.576 130.432 73.4053 128 73.064C125.611 72.7227 123.733 72.296 122.368 71.784V64.552C124.203 65.1067 126.272 65.5547 128.576 65.896C130.923 66.1947 133.248 66.344 135.552 66.344C138.069 66.344 139.819 66.0027 140.8 65.32C141.824 64.5947 142.336 63.208 142.336 61.16C142.336 59.88 142.123 58.9627 141.696 58.408C141.312 57.8107 140.48 57.3627 139.2 57.064ZM180.869 56.552V32.872H188.549V56.552C188.549 62.312 187.183 66.6 184.453 69.416C181.722 72.1893 177.541 73.576 171.909 73.576C166.149 73.576 161.946 72.232 159.301 69.544C156.655 66.856 155.333 62.5253 155.333 56.552V32.872H163.013V56.552C163.013 60.3067 163.653 62.888 164.933 64.296C166.213 65.6613 168.538 66.344 171.909 66.344C175.322 66.344 177.669 65.64 178.949 64.232C180.229 62.824 180.869 60.264 180.869 56.552ZM203.583 59.304V73H195.903V32.872H210.047C215.977 32.872 220.201 33.8747 222.719 35.88C225.279 37.8853 226.559 41.2347 226.559 45.928C226.559 49.2987 225.812 52.0293 224.319 54.12C222.868 56.168 220.649 57.5973 217.663 58.408L227.775 73H218.559L209.535 59.304H203.583ZM218.751 45.928C218.751 43.7093 218.089 42.1307 216.767 41.192C215.487 40.2533 213.247 39.784 210.047 39.784H203.583V52.904H210.047C213.247 52.904 215.487 52.3707 216.767 51.304C218.089 50.2373 218.751 48.4453 218.751 45.928ZM256.593 57.32H247.889V50.92H263.761V71.144C262.566 71.6987 260.433 72.2533 257.361 72.808C254.289 73.32 251.494 73.576 248.977 73.576C242.193 73.576 237.478 71.9973 234.833 68.84C232.23 65.6827 230.929 60.3707 230.929 52.904C230.929 45.7787 232.465 40.552 235.537 37.224C238.652 33.896 243.558 32.232 250.257 32.232C252.774 32.232 255.014 32.296 256.977 32.424C258.982 32.5093 260.518 32.6587 261.585 32.872V39.592C260.049 39.464 258.278 39.3573 256.273 39.272C254.268 39.1867 252.262 39.144 250.257 39.144C245.862 39.144 242.854 40.1467 241.233 42.152C239.654 44.1573 238.865 47.7413 238.865 52.904C238.865 55.3787 238.993 57.4267 239.249 59.048C239.548 60.6693 239.974 61.992 240.529 63.016C241.254 64.296 242.278 65.2133 243.601 65.768C244.966 66.3227 246.972 66.6 249.617 66.6C250.513 66.6 251.558 66.536 252.753 66.408C253.948 66.28 255.228 66.1093 256.593 65.896V57.32ZM297.164 65.768V73H270.028V32.872H296.588V39.784H277.708V49.256H294.22V55.848H277.708V65.768H297.164ZM328.513 57.064L319.617 54.952C316.673 54.2693 314.603 53.16 313.409 51.624C312.214 50.0453 311.617 47.8053 311.617 44.904C311.617 40.552 312.811 37.352 315.201 35.304C317.59 33.256 321.302 32.232 326.337 32.232C328.427 32.232 330.283 32.3387 331.905 32.552C333.569 32.7227 335.105 33 336.513 33.384V40.296C334.081 39.8267 332.139 39.528 330.689 39.4C329.238 39.2293 327.745 39.144 326.208 39.144C323.649 39.144 321.835 39.5493 320.769 40.36C319.702 41.128 319.169 42.472 319.169 44.392C319.169 45.5013 319.382 46.3547 319.809 46.952C320.278 47.5067 321.046 47.912 322.113 48.168L330.753 50.216C332.758 50.6853 334.251 51.176 335.233 51.688C336.214 52.1573 337.025 52.7547 337.665 53.48C338.305 54.2907 338.774 55.2933 339.073 56.488C339.414 57.6827 339.585 59.1547 339.585 60.904C339.585 65.4267 338.39 68.6693 336.001 70.632C333.611 72.5947 329.899 73.576 324.865 73.576C322.262 73.576 319.745 73.4053 317.312 73.064C314.923 72.7227 313.046 72.296 311.681 71.784V64.552C313.515 65.1067 315.585 65.5547 317.889 65.896C320.235 66.1947 322.561 66.344 324.865 66.344C327.382 66.344 329.131 66.0027 330.113 65.32C331.137 64.5947 331.649 63.208 331.649 61.16C331.649 59.88 331.435 58.9627 331.009 58.408C330.625 57.8107 329.793 57.3627 328.513 57.064ZM369.436 32.872H377.372L362.908 58.088V73H355.228V58.088L340.38 32.872H349.084L359.132 51.24L369.436 32.872ZM415.256 32.872V73H407.768L388.76 45.8V73H381.528V32.872H389.016L408.088 60.712V32.872H415.256ZM451.957 32.872V39.784H439.797V73H432.117V39.784H420.021V32.872H451.957ZM464.333 73H456.653V32.872H464.333V49.128H481.869V32.872H489.549V73H481.869V56.104H464.333V73ZM535.395 32.872V39.784H523.235V73H515.555V39.784H503.459V32.872H535.395ZM567.226 65.768V73H540.09V32.872H566.65V39.784H547.77V49.256H564.282V55.848H547.77V65.768H567.226ZM577.381 73H569.317L584.677 32.872H592.613L607.717 73H599.653L596.773 64.808H580.197L577.381 73ZM588.453 40.232C587.984 41.8533 587.45 43.56 586.853 45.352C586.298 47.144 585.765 48.808 585.253 50.344L582.437 58.472H594.533L591.717 50.344C591.248 48.9787 590.714 47.4 590.117 45.608C589.52 43.7733 588.965 41.9813 588.453 40.232ZM650.88 32.872V73H643.648V45.16L634.496 65.128H628.16L619.072 45.096V73H611.84V32.872H621.312L631.488 55.72L641.728 32.872H650.88Z" fill="white"/>
</svg>
